# xmcd
#
# Track frame offsets:
#	150
#	24775
#	38651
#	57491
#	75134
#	89710
#	109189
#	123610
#	146069
#	161521
#	184539
#	202629
#	217218
#	227640
#
# Disc length: 3322 seconds
#
# Revision: 1
# Processed by: cddbd v1.5.2PL0 Copyright (c) Steve Scherf et al.
# Submitted via: audiograbber 1.83.01
#
DISCID=b50cf80e
DTITLE=Kentucky Mountain Trio - Why Not Today
DYEAR=2013
DGENRE=Gospel
TTITLE0=Pressed Through the Crowd
TTITLE1=What WIll I Give to Jesus?
TTITLE2=Beulah Land
TTITLE3=Patchin' It Up
TTITLE4=What a Prayer can do
TTITLE5=I Know Why
TTITLE6=Blood of the Lamb
TTITLE7=Somebody's Praying
TTITLE8=Prayer for Peace
TTITLE9=Go Rest on that Mountain
TTITLE10=I'll Stick With the Old Stuff
TTITLE11=God Loves His Children
TTITLE12=He's the Same God
TTITLE13=Why Not Today?
EXTD=
EXTT0=
EXTT1=
EXTT2=
EXTT3=
EXTT4=
EXTT5=
EXTT6=
EXTT7=
EXTT8=
EXTT9=
EXTT10=
EXTT11=
EXTT12=
EXTT13=
PLAYORDER=
